<svg width="24" height="25" viewBox="0 0 24 25" fill="none" xmlns="http://www.w3.org/2000/svg">
<path fill-rule="evenodd" clip-rule="evenodd" d="M19.4311 4.78402C18.3584 5.51587 17.827 5.94696 16.5037 7.16002C15.3708 8.19263 15.3909 8.1826 15.0701 7.85176C14.4085 7.13997 11.9823 6.49835 11.2906 6.86929C10.9597 7.03971 10.9999 7.38057 11.3508 7.38057C12.3031 7.3906 13.1854 7.83171 13.9373 8.4633C14.6089 9.03475 14.6089 9.00466 13.6566 9.94701C12.634 10.9495 11.1803 12.6037 10.3682 13.6764L9.74667 14.4985L9.22536 13.7266C7.99226 11.8819 6.65892 10.9696 5.83685 11.4007C5.53608 11.5611 5.58622 11.6614 6.48848 12.6138C7.28048 13.4459 8.10255 14.6288 8.68402 15.7817C9.15519 16.7141 10.3181 16.7141 11.1101 15.3707C11.6816 14.3982 13.1553 12.5436 14.3683 11.2804L15.4511 10.1475L15.7117 10.729C18.0376 15.9321 12.3633 21.9573 7.59127 19.3507C2.71899 16.6841 3.82176 8.13247 9.13519 7.37055C10.1778 7.22017 10.1978 6.86928 9.16519 6.73896C6.49849 6.37804 3.08993 9.53596 2.72902 12.684C2.04729 18.6891 7.97224 22.5989 13.7668 19.9823C17.2857 18.3983 18.9298 12.704 16.7543 9.6964C16.594 9.47588 16.4636 9.26536 16.4636 9.21518C16.4636 9.00467 18.2581 7.40062 20.1629 5.93693C22.3083 4.28276 21.1955 3.58099 19.4311 4.78402Z" fill="#86C0FA"/>
</svg>
